leg6dof9musc_knee_stop_states
version=1
nRows=10
nColumns=41
inDegrees=yes

# SIMM Motion File Header:
name leg6dof9musc_knee_stop_states
datacolumns 41
datarows 10
otherdata 1
range 1.01135297 1.01727655
endheader
time	/jointset/ground_pelvis/turn/value	/jointset/ground_pelvis/turn/speed	/jointset/hip_r/hip_flexion_r/value	/jointset/hip_r/hip_flexion_r/speed	/jointset/knee_r/knee_angle_r/value	/jointset/knee_r/knee_angle_r/speed	/jointset/tib_pat_r/knee_angle_pat_r/value	/jointset/tib_pat_r/knee_angle_pat_r/speed	/jointset/ankle_r/ankle_angle_r/value	/jointset/ankle_r/ankle_angle_r/speed	/jointset/free/ball_rx/value	/jointset/free/ball_rx/speed	/jointset/free/ball_ry/value	/jointset/free/ball_ry/speed	/jointset/free/ball_rz/value	/jointset/free/ball_rz/speed	/jointset/free/ball_tx/value	/jointset/free/ball_tx/speed	/jointset/free/ball_ty/value	/jointset/free/ball_ty/speed	/jointset/free/ball_tz/value	/jointset/free/ball_tz/speed	/forceset/bifemlh_r/activation	/forceset/bifemlh_r/fiber_length	/forceset/bifemsh_r/activation	/forceset/bifemsh_r/fiber_length	/forceset/glut_max2_r/activation	/forceset/glut_max2_r/fiber_length	/forceset/psoas_r/activation	/forceset/psoas_r/fiber_length	/forceset/rect_fem_r/activation	/forceset/rect_fem_r/fiber_length	/forceset/vas_int_r/activation	/forceset/vas_int_r/fiber_length	/forceset/med_gas_r/activation	/forceset/med_gas_r/fiber_length	/forceset/soleus_r/activation	/forceset/soleus_r/fiber_length	/forceset/tib_ant_r/activation	/forceset/tib_ant_r/fiber_length
      1.01135297	    -11.14906974	     30.02773629	      8.75415939	    -92.95985025	      0.59309453	     -9.97683724	      0.01035145	     -0.17412866	     14.03723383	    221.19967392	    120.55046524	     20.15958686	     39.90768293	    479.93309660	    -93.87292458	   -387.74424283	      5.76326608	     -0.06344666	      0.23511362	      1.63327501	     -0.57700092	      2.10381495	      0.02134201	      0.11957609	      0.02072222	      0.19845345	     -0.08290877	      0.09876198	     -0.02046190	      0.10256570	      0.02045711	      0.10705444	      0.02067038	      0.07700197	      0.02097507	      0.11752932	      0.01289806	      0.10153896	      0.10015660	      0.07894874
      1.01216995	    -11.12456415	     29.96312928	      8.67850113	    -92.27012434	      0.58475927	    -10.38711507	      0.01020597	     -0.18128936	     14.21905466	    223.48156621	    120.71288915	     20.15958686	     39.43532496	    479.93309660	    -94.10155211	   -387.74424283	      5.76321425	     -0.06344666	      0.23644470	      1.62526314	     -0.57528214	      2.10381495	      0.02132751	      0.11948471	      0.02071443	      0.19845215	     -0.08301396	      0.09868220	     -0.02056708	      0.10262298	      0.02045218	      0.10712656	      0.02066314	      0.07700346	      0.02096454	      0.11767033	      0.01284469	      0.10166702	      0.10015454	      0.07884036
      1.01270396	    -11.10857452	     29.92192590	      8.62933463	    -91.87795054	      0.57917690	    -10.49895760	      0.01010854	     -0.18324138	     14.33840710	    223.28755112	    120.81715087	     20.15958686	     39.12630691	    479.93309660	    -94.24922651	   -387.74424283	      5.76318037	     -0.06344666	      0.23731121	      1.62002628	     -0.57415868	      2.10381495	      0.02131812	      0.11942521	      0.02070938	      0.19845106	     -0.08308271	      0.09863039	     -0.02063584	      0.10266017	      0.02044899	      0.10717371	      0.02065846	      0.07700474	      0.02095772	      0.11776302	      0.01280985	      0.10176353	      0.10015320	      0.07876772
      1.01323797	    -11.09260667	     29.88159382	      8.58036613	    -91.52775392	      0.57356433	    -10.50313972	      0.01001059	     -0.18331437	     14.45733420	    221.91998063	    120.91993598	     20.15958686	     38.81708283	    479.93309660	    -94.39553584	   -387.74424283	      5.76314649	     -0.06344666	      0.23817493	      1.61478941	     -0.57303521	      2.10381495	      0.02130879	      0.11936589	      0.02070437	      0.19844982	     -0.08315147	      0.09857883	     -0.02070459	      0.10269718	      0.02044582	      0.10722083	      0.02065381	      0.07700625	      0.02095095	      0.11785554	      0.01277504	      0.10184600	      0.10015188	      0.07869375
      1.01391107	    -11.07251027	     29.83184317	      8.51889076	    -91.14781886	      0.56653708	    -10.34734096	      0.00988794	     -0.18059517	     14.60563224	    218.38453030	    121.04742569	     20.15958686	     38.42703269	    479.93309660	    -94.57804649	   -387.74424283	      5.76310378	     -0.06344666	      0.23925962	      1.60818859	     -0.57161914	      2.10381495	      0.02129712	      0.11929139	      0.02069811	      0.19844807	     -0.08323813	      0.09851414	     -0.02079125	      0.10274360	      0.02044186	      0.10728011	      0.02064799	      0.07700848	      0.02094249	      0.11797112	      0.01273122	      0.10195949	      0.10015023	      0.07859880
      1.01458417	    -11.05244694	     29.78333442	      8.45764972	    -90.82947217	      0.55966974	    -10.03474920	      0.00976808	     -0.17513941	     14.75092685	    213.07469380	    121.17265507	     20.15958686	     38.03666904	    479.93309660	    -94.75847814	   -387.74424283	      5.76306108	     -0.06344666	      0.24033986	      1.60158776	     -0.57020307	      2.10381495	      0.02128557	      0.11921720	      0.02069190	      0.19844618	     -0.08332479	      0.09844975	     -0.02087791	      0.10278980	      0.02043793	      0.10733920	      0.02064223	      0.07701105	      0.02093410	      0.11808464	      0.01268746	      0.10206081	      0.10014859	      0.07850219
      1.01525726	    -11.03241588	     29.73590388	      8.39660283	    -90.57178641	      0.55306451	     -9.56465230	      0.00965280	     -0.16693467	     14.89205540	    205.95379167	    121.29566998	     20.15958686	     37.64599927	    479.93309660	    -94.93687899	   -387.74424283	      5.76301837	     -0.06344666	      0.24141566	      1.59498693	     -0.56878700	      2.10381495	      0.02127411	      0.11914331	      0.02068574	      0.19844418	     -0.08341145	      0.09838562	     -0.02096457	      0.10283581	      0.02043404	      0.10739803	      0.02063652	      0.07701393	      0.02092578	      0.11819519	      0.01264375	      0.10217396	      0.10014697	      0.07840428
      1.01593036	    -11.01241638	     29.68962077	      8.33571164	    -90.36450329	      0.54682030	     -8.96977145	      0.00954381	     -0.15655205	     15.02788404	    197.42391342	    121.41651502	     20.15958686	     37.25503058	    479.93309660	    -95.11329599	   -387.74424283	      5.76297566	     -0.06344666	      0.24248702	      1.58838611	     -0.56737093	      2.10381495	      0.02126276	      0.11906975	      0.02067964	      0.19844213	     -0.08349811	      0.09832170	     -0.02105124	      0.10288166	      0.02043018	      0.10745653	      0.02063085	      0.07701708	      0.02091754	      0.11830203	      0.01260010	      0.10226593	      0.10014537	      0.07830546
      1.01660346	    -10.99244769	     29.64430046	      8.27494324	    -90.20673255	      0.54101922	     -8.24759085	      0.00944257	     -0.14394762	     15.15748943	    187.46087945	    121.53523350	     20.15958686	     36.86376996	    479.93309660	    -95.28777483	   -387.74424283	      5.76293296	     -0.06344666	      0.24355394	      1.58178528	     -0.56595486	      2.10381495	      0.02125151	      0.11899651	      0.02067359	      0.19844008	     -0.08358477	      0.09825795	     -0.02113790	      0.10292737	      0.02042635	      0.10751463	      0.02062524	      0.07702045	      0.02090937	      0.11840444	      0.01255650	      0.10236595	      0.10014379	      0.07820619
      1.01727655	    -10.97250917	     29.59997989	      8.21426708	    -90.08900768	      0.53573890	     -7.42653349	      0.00935041	     -0.12961746	     15.28001623	    176.44827451	    121.65186750	     20.15958686	     36.47222421	    479.93309660	    -95.46036001	   -387.74424283	      5.76289025	     -0.06344666	      0.24461641	      1.57518445	     -0.56453878	      2.10381495	      0.02124035	      0.11892360	      0.02066760	      0.19843806	     -0.08367143	      0.09819434	     -0.02122456	      0.10297297	      0.02042256	      0.10757228	      0.02061968	      0.07702398	      0.02090128	      0.11850187	      0.01251296	      0.10245447	      0.10014223	      0.07810691
